{"title":"Locke 2013 KORSUB HDRip Xvid","uid":10473291,"size":1442050616,"categoryP":"video","categoryS":"movies","magnet":"?xt=urn:btih:409c0867e4a3cf0bdb57206cce9fc126769a4753&amp;dn=Locke+2013+KORSUB+HDRip+Xvid&amp;tr=udp%3A%2F%2Ftracker.openbittorrent.com%3A80&amp;tr=udp%3A%2F%2Fopen.demonii.com%3A1337&amp;tr=udp%3A%2F%2Ftracker.coppersurfer.tk%3A6969&amp;tr=udp%3A%2F%2Fexodus.desync.com%3A6969","seeders":1,"leechers":0,"uploader":"pjones452","files":3,"time":1404281936,"description":"Locke 2013 KORSUB HDRip XviD AC3-MiLLENiUMGeneral\nSource: 720p.WEBDL [THANKS]\nIMDb Information: http://www.imdb.com/title/tt2692904/\nSample Included: yes\n\nGeneral\nComplete name: Locke 2013 KORSUB HDRip XviD AC3-MiLLENiUM.avi\nFormat: AVI\nFormat/Info: Audio Video Interleave\nFile size: 1.30 GiB\nDuration: 1h 24mn\nOverall bit rate: 2 188 Kbps\n\nVideo\nID: 0\nFormat: MPEG-4 Visual\nFormat profile: Advanced Simple@L5\nFormat settings, BVOP: 2\nFormat settings, QPel: No\nFormat settings, GMC: No warppoints\nFormat settings, Matrix: Default (H.263)\nMuxing mode: Packed bitstream\nCodec ID: XVID\nCodec ID/Hint: XviD\nDuration: 1h 24mn\nBit rate: 1 797 Kbps\nWidth: 720 pixels\nHeight: 304 pixels\nDisplay aspect ratio: 2.35:1\nFrame rate: 23.976 fps\nColor space: YUV\nChroma subsampling: 4:2:0\nBit depth: 8 bits\nScan type: Progressive\nCompression mode: Lossy\nBits/(Pixel*Frame): 0.342\nStream size: 1.07 GiB (82%)\nWriting library: XviD 64\n\nAudio\nID: 1\nFormat: AC-3\nFormat/Info: Audio Coding 3\nMode extension: CM (complete main)\nFormat settings, Endianness: Big\nCodec ID: 2000\nDuration: 1h 24mn\nBit rate mode: Constant\nBit rate: 384 Kbps\nChannel(s): 2 channels\nChannel positions: Front: L R\nSampling rate: 48.0 KHz\nBit depth: 16 bits\nCompression mode: Lossy\nStream size: 233 MiB (18%)\nAlignment: Aligned on interleaves\nInterleave, duration: 64 ms (1.53 video frames)\nInterleave, preload duration: 192 ms","torrent":{"xt":"urn:btih:409c0867e4a3cf0bdb57206cce9fc126769a4753","amp;dn":"Locke+2013+KORSUB+HDRip+Xvid","amp;tr":["udp%3A%2F%2Ftracker.openbittorrent.com%3A80","udp%3A%2F%2Fopen.demonii.com%3A1337","udp%3A%2F%2Ftracker.coppersurfer.tk%3A6969","udp%3A%2F%2Fexodus.desync.com%3A6969"],"infoHash":"409c0867e4a3cf0bdb57206cce9fc126769a4753","infoHashBuffer":{"type":"Buffer","data":[64,156,8,103,228,163,207,11,219,87,32,108,206,159,193,38,118,154,71,83]},"announce":[],"urlList":[]}}